<svg xmlns="http://www.w3.org/2000/svg" viewBox="0 0 21.34 21.1"><defs><style>.cls-1{fill:#8e8e8e;}</style></defs><g id="Layer_2" data-name="Layer 2"><g id="art_board_1" data-name="art board 1"><g id="icons"><path id="home" class="cls-1" d="M0,10.88v-.46a2.05,2.05,0,0,1,.52-.93Q5,5,9.5.53A1.71,1.71,0,0,1,10.17.1a1.56,1.56,0,0,1,1.72.46Q16.33,5,20.78,9.45l.19.21a1.5,1.5,0,0,1,.37,1,1.59,1.59,0,0,1-1.55,1.63H18.52v6.67a2.14,2.14,0,0,1-.2,1,2,2,0,0,1-1.94,1.17h-7c-1.47,0-2.95,0-4.42,0a2,2,0,0,1-1.28-.42,2.07,2.07,0,0,1-.82-1.74V12.26H2.6c-.35,0-.7,0-1,0a1.55,1.55,0,0,1-1.41-.94A4.34,4.34,0,0,1,0,10.88Zm13.05,7.23s0-.07,0-.11c0-.91,0-1.83,0-2.74a2.38,2.38,0,0,0-4.76,0c0,.91,0,1.83,0,2.75a.44.44,0,0,0,0,.1Z"/></g></g></g></svg>