<svg xmlns="http://www.w3.org/2000/svg" viewBox="0 0 15.3 15.15"><defs><style>.cls-1{fill:#8e8e8e;}</style></defs><g id="Layer_2" data-name="Layer 2"><g id="Layer_1-2" data-name="Layer 1"><g id="Layer_2-2" data-name="Layer 2"><g id="art_board_1" data-name="art board 1"><g id="icons"><path id="home" class="cls-1" d="M0,7.79V7.46A1.4,1.4,0,0,1,.37,6.8Q3.58,3.58,6.81.37a1.26,1.26,0,0,1,.48-.3A1.1,1.1,0,0,1,8.52.4L14.9,6.77l.13.15a1.06,1.06,0,0,1,.27.72,1.14,1.14,0,0,1-1.11,1.17h-.91v4.78a1.47,1.47,0,0,1-.15.71,1.42,1.42,0,0,1-1.39.84H3.56a1.38,1.38,0,0,1-.92-.3,1.48,1.48,0,0,1-.59-1.25V8.78h-.9a1.09,1.09,0,0,1-1-.67A3.09,3.09,0,0,1,0,7.79ZM9.36,13V10.93a1.71,1.71,0,0,0-3.42,0V13Z"/></g></g></g></g></g></svg>